<svg width="58" height="52" viewBox="0 0 58 52" fill="none" xmlns="http://www.w3.org/2000/svg">
<path d="M56.3712 24.1605H43.7223V21.7178C43.7217 21.361 43.529 21.0322 43.218 20.8574L29.6691 13.2423V9.36554H32.3492V10.8391C32.3492 11.3853 32.792 11.8281 33.3382 11.8281H41.418C41.9642 11.8278 42.4067 11.3849 42.4066 10.8387C42.4066 10.7243 42.3866 10.6107 42.3477 10.5029L41.5367 8.19855L42.3576 5.9437C42.5432 5.43006 42.2774 4.86313 41.7638 4.67745C41.6561 4.63851 41.5425 4.61861 41.4279 4.61849H37.749V3.18448C37.749 2.63832 37.3061 2.19551 36.76 2.19551H29.6691V0.988969C29.6691 0.442811 29.2263 0 28.6801 0C28.1339 0 27.6911 0.442811 27.6911 0.988969V13.2423L14.1423 20.8475C13.8312 21.0223 13.6385 21.3511 13.6379 21.7079V24.1506H0.988969C0.442811 24.1506 0 24.5934 0 25.1396V51.011C0 51.5572 0.442811 52 0.988969 52H56.3712C56.9174 52 57.3602 51.5572 57.3602 51.011V25.1495C57.3602 24.6033 56.9174 24.1605 56.3712 24.1605ZM37.749 8.37657L37.7094 8.33701V6.63598H39.9642L39.5588 7.90186C39.4778 8.12216 39.4778 8.36396 39.5588 8.58425L40.0236 9.85013H34.3271V9.36554H36.76C37.3061 9.36554 37.749 8.92273 37.749 8.37657ZM29.6691 4.17345H35.771V5.64701V7.3876H29.6691V4.17345ZM13.6379 50.0221H1.97794V26.1385H13.6379V50.0221ZM27.6911 50.0221H22.4991V38.728H27.6911V50.0221ZM34.8612 50.0221H29.6691V38.728H34.8612V50.0221ZM41.784 50.0221H36.8391V37.7391C36.8391 37.1929 36.3963 36.7501 35.8501 36.7501H21.5101C20.9639 36.7501 20.5211 37.1929 20.5211 37.7391V50.0221H15.5763V22.3309L28.6801 14.9532L41.7444 22.2914L41.784 25.1396V50.0221ZM55.3823 50.0221H43.7223V26.1385H55.3823V50.0221Z" fill="#157698"/>
<path d="M28.6802 17.9795C26.39 17.9849 24.5364 19.843 24.5364 22.1332C24.5418 24.4218 26.4014 26.2725 28.69 26.2671C30.9786 26.2616 32.8294 24.402 32.8239 22.1134C32.8185 19.8287 30.9648 17.9795 28.6802 17.9795ZM28.6802 24.2891C27.484 24.2837 26.5188 23.3095 26.5242 22.1134C26.5296 20.925 27.4917 19.9629 28.6802 19.9574C29.8779 19.9629 30.846 20.9354 30.846 22.1332H30.8559C30.8505 23.3293 29.8763 24.2946 28.6802 24.2891Z" fill="#157698"/>
<path d="M6.33939 28.3142H4.36145V32.2701H6.33939V28.3142Z" fill="#157698"/>
<path d="M11.215 28.3142H9.23706V32.2701H11.215V28.3142Z" fill="#157698"/>
<path d="M22.5385 28.3142H18.5826V30.2921H22.5385V28.3142Z" fill="#157698"/>
<path d="M30.658 28.3142H26.7021V30.2921H30.658V28.3142Z" fill="#157698"/>
<path d="M38.7773 28.3142H34.8214V30.2921H38.7773V28.3142Z" fill="#157698"/>
<path d="M22.5385 32.9229H18.5826V34.9008H22.5385V32.9229Z" fill="#157698"/>
<path d="M30.658 32.9229H26.7021V34.9008H30.658V32.9229Z" fill="#157698"/>
<path d="M38.7773 32.9229H34.8214V34.9008H38.7773V32.9229Z" fill="#157698"/>
<path d="M6.33939 36.0974H4.36145V40.0533H6.33939V36.0974Z" fill="#157698"/>
<path d="M11.215 36.0974H9.23706V40.0533H11.215V36.0974Z" fill="#157698"/>
<path d="M6.33939 43.8905H4.36145V47.8464H6.33939V43.8905Z" fill="#157698"/>
<path d="M11.215 43.8905H9.23706V47.8464H11.215V43.8905Z" fill="#157698"/>
<path d="M48.1232 28.3142H46.1453V32.2701H48.1232V28.3142Z" fill="#157698"/>
<path d="M52.9989 28.3142H51.021V32.2701H52.9989V28.3142Z" fill="#157698"/>
<path d="M48.1232 36.0974H46.1453V40.0533H48.1232V36.0974Z" fill="#157698"/>
<path d="M52.9989 36.0974H51.021V40.0533H52.9989V36.0974Z" fill="#157698"/>
<path d="M48.1232 43.8905H46.1453V47.8464H48.1232V43.8905Z" fill="#157698"/>
<path d="M52.9989 43.8905H51.021V47.8464H52.9989V43.8905Z" fill="#157698"/>
</svg>
